<svg xmlns="http://www.w3.org/2000/svg" viewBox="0 0 566.21 394.69"><defs><style>.cls-1{fill:#9a1700;}.cls-2{fill:#ff7300;}.cls-3{fill:#fcf8f3;}.cls-4,.cls-5,.cls-6{fill:#fff;}.cls-4,.cls-5{stroke:#fff;stroke-miterlimit:10;}.cls-4{stroke-width:8px;}</style></defs><title>Asset 1</title><g id="Layer_2" data-name="Layer 2"><g id="Layer_1-2" data-name="Layer 1"><path class="cls-1" d="M0,199.24c0,100.51,82.22,185.7,185,194.7V312.25c-57.76-5.4-103-54.82-103-115s45.24-109.61,103-115V.12C79.86,6.55,0,96.79,0,199.24Z"/><path class="cls-1" d="M293.38,138.74h91.13C360.21,62.89,291.64,4.3,207,0V82.33C243.85,86.1,275.49,107.81,293.38,138.74Z"/><path class="cls-1" d="M452,388.74l-99.31-66.53a195.36,195.36,0,0,0,30.69-57.47H287.61A113,113,0,0,1,207,312.16v82.53a190.38,190.38,0,0,0,79.27-18.57L296,389.74Z"/><path class="cls-2" d="M518,211.25c-22.18-10.4-33.31-30.18-23-53.75,8.45-19.31,22.67-32.57,41.89-40.71a16.14,16.14,0,0,1,3.79-.62c0,1.41.36,2.91,0,4.22A25.14,25.14,0,0,0,543.79,141c6.81,11,13.58,22.11,20,33.4,3.53,6.27,3,13,.1,19.55-4.69,10.67-11.64,19.35-22.18,24.79-1.32.68-2.73,1.2-4.1,1.79,6.85-9.38,8.49-19.39,4.32-30.44-2.68-7.11-4.62-14.49-7.2-21.64-.2-.58-3.14-1-4.14-.34C516.51,176.72,510.83,196.48,518,211.25Z"/><path class="cls-3" d="M518,211.25c-7.12-14.77-1.44-34.53,12.6-43.18,1-.62,3.94-.24,4.14.34,2.58,7.15,4.52,14.53,7.2,21.64,4.17,11,2.53,21.06-4.32,30.44-1.43.76-2.79,1.87-4.31,2.18s-3.56.31-4.49-.54C525,218.71,521.52,214.91,518,211.25Z"/><path class="cls-4" d="M252.9,164.59v50.15h-7.54V164.59H214v-5.88h70.35v5.88Z"/><path class="cls-4" d="M314.74,164.34v18.82h52v5.37h-52v20.58h54.63v5.63H307.2v-56h61.51v5.63Z"/><path class="cls-4" d="M457.81,176.61a31,31,0,0,0-.74-6.85,5.6,5.6,0,0,0-3.26-3.7,22.32,22.32,0,0,0-7.77-1.51q-5.16-.28-14.29-.29-12.18,0-19.17.54t-9.4,2.73c-1.42,1.29-2.39,3.65-2.88,7.06a99.77,99.77,0,0,0-.75,13.78q0,6,.38,9.78a17.59,17.59,0,0,0,1.49,6.09,6.77,6.77,0,0,0,3.11,3.24,16.09,16.09,0,0,0,5.26,1.3,74.19,74.19,0,0,0,8,.29c3.17,0,6.92,0,11.26.13.94.05,1.71.08,2.33.08h2.33c1.8,0,3.33,0,4.6,0s2.81-.1,4.61-.21c3.41-.17,6.13-.41,8.14-.71a9.74,9.74,0,0,0,4.61-1.73,6,6,0,0,0,2.05-3.69,37.91,37.91,0,0,0,.46-6.72H466c0,1.79-.05,3.44-.14,4.95a23.12,23.12,0,0,1-.6,4.16,12.87,12.87,0,0,1-1.4,3.45,10.94,10.94,0,0,1-2.61,2.89,13.21,13.21,0,0,1-4.65,2.19,39.1,39.1,0,0,1-6.89,1.09q-4.09.33-9.63.38t-12.79,0q-7.64,0-13.26-.17a58.17,58.17,0,0,1-9.59-1,17.07,17.07,0,0,1-6.42-2.52,11.48,11.48,0,0,1-3.86-4.75,24.85,24.85,0,0,1-1.91-7.6,103.73,103.73,0,0,1-.51-11.22q0-7.22.46-12.22a27.38,27.38,0,0,1,1.91-8.31,12.25,12.25,0,0,1,4.09-5.21,18.84,18.84,0,0,1,7.08-2.82,65.09,65.09,0,0,1,10.89-1.13q6.46-.21,15.49-.21,6.88,0,12,.13a66.76,66.76,0,0,1,8.79.71,21.39,21.39,0,0,1,6.05,1.76,10,10,0,0,1,3.81,3.24,13.81,13.81,0,0,1,2.1,5.12,47.11,47.11,0,0,1,.84,7.44Z"/><path class="cls-5" d="M250.92,232.93v4.16h-6v5.31h4.59v4.15h-4.59v8.67h-4V232.93Z"/><path class="cls-5" d="M261.42,232.93v22.29h-4.08V232.93Z"/><path class="cls-5" d="M282.69,255.22h-4.45a2.78,2.78,0,0,1-.23-.49c-.07-.18-.19-.54-.36-1.09s-.41-1.42-.64-2.39-.41-1.58-.57-2.09a5.24,5.24,0,0,0-.56-1.28,1.05,1.05,0,0,0-.76-.57h-1.75v7.91h-4V232.93h6.25a6.8,6.8,0,0,1,2.94.63,5,5,0,0,1,2.22,2.18,8.56,8.56,0,0,1,.86,4.14q0,4.68-2.56,6.3a5.24,5.24,0,0,1,1,1.61c.28.68.6,1.62,1,2.82.21.7.4,1.27.55,1.72s.32.87.48,1.28Zm-9.32-11.74a4.22,4.22,0,0,0,.94.08h1a1.92,1.92,0,0,0,1.77-1,5.11,5.11,0,0,0,.6-2.62c0-2.12-.88-3.18-2.63-3.18a3.82,3.82,0,0,0-1.72.35Z"/><path class="cls-5" d="M299.32,232.93v4.16h-6.21v4.71h4.79v4.06h-4.79V251H300v4.26H289.11V232.93Z"/><path class="cls-5" d="M318.51,249.52a7.15,7.15,0,0,0,1.87,1,6.61,6.61,0,0,0,2.36.44,2.64,2.64,0,0,0,1.69-.43,1.71,1.71,0,0,0,.54-1.41,2.16,2.16,0,0,0-.31-1.16,3.8,3.8,0,0,0-.91-.94c-.41-.3-1.09-.76-2.06-1.38a8.86,8.86,0,0,1-2.77-2.71,7.38,7.38,0,0,1-1-4,6.87,6.87,0,0,1,.72-3.27,4.62,4.62,0,0,1,2-2,6.63,6.63,0,0,1,3-.67,8.84,8.84,0,0,1,2.79.4,5.72,5.72,0,0,1,1.76.88l-.62,4.15a4.59,4.59,0,0,0-1.55-1,5.33,5.33,0,0,0-2-.43,2.5,2.5,0,0,0-1.67.49,1.69,1.69,0,0,0-.56,1.35,2.38,2.38,0,0,0,.28,1.14,3.34,3.34,0,0,0,.87,1,16.92,16.92,0,0,0,1.64,1.13,13.88,13.88,0,0,1,2.47,1.82,6.22,6.22,0,0,1,1.46,2.09,7.26,7.26,0,0,1,.51,2.85,7.91,7.91,0,0,1-.69,3.42,5,5,0,0,1-2,2.24,6.09,6.09,0,0,1-3.19.8A11,11,0,0,1,321,255a10.35,10.35,0,0,1-1.84-.55,4.22,4.22,0,0,1-1.12-.61Z"/><path class="cls-5" d="M346,232.93v4.16h-6.21v4.71h4.79v4.06h-4.79V251h6.85v4.26H335.81V232.93Z"/><path class="cls-5" d="M366.83,255.22h-4.45a2.78,2.78,0,0,1-.23-.49c-.07-.18-.19-.54-.35-1.09s-.42-1.42-.65-2.39-.41-1.58-.56-2.09a5.65,5.65,0,0,0-.57-1.28,1.05,1.05,0,0,0-.76-.57h-1.75v7.91h-4V232.93h6.25a6.87,6.87,0,0,1,2.94.63,5,5,0,0,1,2.21,2.18,8.56,8.56,0,0,1,.86,4.14q0,4.68-2.55,6.3a5.66,5.66,0,0,1,1,1.61c.27.68.59,1.62,1,2.82.22.7.4,1.27.55,1.72s.32.87.49,1.28Zm-9.32-11.74a4.22,4.22,0,0,0,.94.08h1a1.92,1.92,0,0,0,1.77-1,5.11,5.11,0,0,0,.6-2.62c0-2.12-.88-3.18-2.63-3.18a3.82,3.82,0,0,0-1.72.35Z"/><path class="cls-5" d="M375.34,232.93l2.58,11.29.81,4.35.8-4.35,2.41-11.29h4.31l-5.83,22.29H376.9L371,232.93Z"/><path class="cls-5" d="M396.48,232.93v22.29h-4.07V232.93Z"/><path class="cls-5" d="M413.73,233.09a15.46,15.46,0,0,1,1.63.5l.71.24-.53,4.95a5.78,5.78,0,0,0-1.34-1,4.23,4.23,0,0,0-2-.42,3.67,3.67,0,0,0-2.25.75,5,5,0,0,0-1.57,2.21,9.41,9.41,0,0,0-.58,3.49,12.11,12.11,0,0,0,.52,3.76,5.37,5.37,0,0,0,1.55,2.49,3.7,3.7,0,0,0,2.5.89,4.79,4.79,0,0,0,1.36-.21,6.83,6.83,0,0,0,1.29-.53,3.16,3.16,0,0,0,.85-.63v4.5a9.62,9.62,0,0,1-1.82.85,6.25,6.25,0,0,1-2.14.33,7.46,7.46,0,0,1-4.5-1.36,8.39,8.39,0,0,1-2.84-3.87,16.19,16.19,0,0,1-1-5.89,15.51,15.51,0,0,1,1.08-6.12,8.49,8.49,0,0,1,3-3.8,7.24,7.24,0,0,1,4.22-1.29A8.29,8.29,0,0,1,413.73,233.09Z"/><path class="cls-5" d="M433,232.93v4.16h-6.21v4.71h4.79v4.06h-4.79V251h6.85v4.26H422.82V232.93Z"/><path class="cls-5" d="M440.49,249.52a7.24,7.24,0,0,0,1.86,1,6.65,6.65,0,0,0,2.36.44,2.67,2.67,0,0,0,1.7-.43,1.73,1.73,0,0,0,.53-1.41,2.07,2.07,0,0,0-.31-1.16,3.63,3.63,0,0,0-.91-.94c-.4-.3-1.09-.76-2.06-1.38a8.86,8.86,0,0,1-2.77-2.71,7.38,7.38,0,0,1-1-4,6.87,6.87,0,0,1,.72-3.27,4.69,4.69,0,0,1,2-2,6.57,6.57,0,0,1,3-.67,8.93,8.93,0,0,1,2.79.4,5.84,5.84,0,0,1,1.76.88l-.63,4.15a4.53,4.53,0,0,0-1.54-1,5.37,5.37,0,0,0-2-.43,2.53,2.53,0,0,0-1.68.49,1.69,1.69,0,0,0-.55,1.35,2.27,2.27,0,0,0,.28,1.14,3.3,3.3,0,0,0,.86,1,16.06,16.06,0,0,0,1.65,1.13,13.78,13.78,0,0,1,2.46,1.82,6.08,6.08,0,0,1,1.46,2.09,7.26,7.26,0,0,1,.51,2.85,8.06,8.06,0,0,1-.68,3.42,5.15,5.15,0,0,1-2,2.24,6.13,6.13,0,0,1-3.2.8A10.84,10.84,0,0,1,443,255a10.1,10.1,0,0,1-1.84-.55,4.31,4.31,0,0,1-1.13-.61Z"/><path class="cls-6" d="M463,241.11h4a6.22,6.22,0,0,1,4.06,1.15,4.6,4.6,0,0,1,1.38,3.75,5.55,5.55,0,0,1-.66,2.8,4.2,4.2,0,0,1-2,1.74,7.53,7.53,0,0,1-3.17.6h-1.44v4.08h-3.54V241.11ZM468.3,248a2.78,2.78,0,0,0,.63-2,2.62,2.62,0,0,0-.58-1.8,2.17,2.17,0,0,0-1.73-.66,8.65,8.65,0,0,0-1.47.11v4.94c.52,0,1,.07,1.44.07A2.29,2.29,0,0,0,468.3,248Z"/><path class="cls-6" d="M473.49,243.84v-2.73h11.1v2.73h-3.76v11.39h-3.57V243.84Z"/><path class="cls-6" d="M493.54,250.27v5h-3.6v-5l-4.65-9.15h3.87l2.09,4.56.6,1.57.5-1.57,2.12-4.56h3.76Z"/><path class="cls-6" d="M509.22,241.11v11.46h4.66v2.66h-8.25V241.11Z"/><path class="cls-6" d="M513.18,243.84v-2.73h11.11v2.73h-3.77v11.39H517V243.84Z"/><path class="cls-6" d="M527.32,241.11h3.87c2.34,0,4.08.57,5.22,1.73a6.78,6.78,0,0,1,1.71,5,8.78,8.78,0,0,1-.84,4,5.82,5.82,0,0,1-2.44,2.54,7.88,7.88,0,0,1-3.83.87h-5V241.11Zm6.26,10.45a5.56,5.56,0,0,0,.87-3.42,8.08,8.08,0,0,0-.37-2.67A2.68,2.68,0,0,0,533,244a3.64,3.64,0,0,0-1.92-.44l-.76,0c-.28,0-.52,0-.71.09v8.85a6.72,6.72,0,0,0,1.62.14A2.82,2.82,0,0,0,533.58,251.56Z"/></g></g></svg>